 <svg  version="1.0" xmlns="http://www.w3.org/2000/svg"  width="900.000000pt" height="303.000000pt" viewBox="0 0 900.000000 303.000000"  preserveAspectRatio="xMidYMid meet">  <g transform="translate(0.000000,303.000000) scale(0.100000,-0.100000)" fill="#1aac06" stroke="none"> <path d="M2453 2357 c-4 -7 -6 -105 -4 -219 3 -207 3 -208 -20 -232 -13 -13 -27 -22 -31 -20 -5 3 -8 108 -8 234 0 226 -5 259 -33 231 -8 -8 -10 -87 -8 -264 l2 -252 -35 -34 c-24 -23 -37 -30 -38 -20 -1 7 -2 136 -2 284 -1 263 -2 270 -21 270 -20 0 -20 -5 -16 -303 l3 -303 -23 -25 c-12 -13 -26 -24 -31 -24 -4 0 -8 144 -8 319 0 176 -4 322 -9 325 -5 3 -14 -1 -21 -9 -9 -11 -11 -99 -9 -350 l4 -335 -25 -24 c-54 -53 -53 -61 -51 332 2 360 2 362 -18 362 -12 0 -21 -6 -22 -12 0 -7 0 -183 1 -392 1 -378 1 -379 -21 -402 -12 -13 -26 -24 -31 -24 -5 0 -8 170 -7 394 1 217 -1 399 -5 404 -4 6 -14 8 -22 5 -14 -5 -15 -54 -13 -431 l3 -424 -28 -25 c-16 -13 -33 -22 -38 -21 -10 4 -12 716 -1 804 5 45 3 53 -15 63 -24 13 -48 -9 -38 -34 3 -8 6 -214 6 -456 l1 -441 -22 -24 c-12 -13 -26 -21 -31 -18 -6 4 -9 193 -7 473 l2 466 -23 3 -23 4 6 -496 c5 -475 5 -496 -14 -520 -20 -26 -56 -40 -62 -23 -1 5 0 37 4 71 8 58 14 915 7 921 -2 2 -12 5 -23 7 -20 3 -20 -3 -21 -535 l-2 -538 -22 -24 c-13 -14 -27 -22 -32 -19 -6 4 -9 216 -7 538 2 509 2 531 -16 531 -17 0 -18 -23 -16 -560 l2 -560 -25 -24 c-14 -14 -29 -21 -33 -17 -5 4 -8 254 -8 554 l0 547 -25 3 -25 3 3 -583 4 -582 -108 -102 c-79 -74 -106 -105 -101 -117 13 -34 44 -14 141 89 l100 105 579 -1 c465 -2 581 1 588 11 4 7 5 17 3 21 -3 4 -254 8 -559 8 -305 0 -556 3 -559 8 -2 4 6 18 19 30 l24 23 563 -2 c545 -1 563 -1 563 17 0 18 -19 19 -538 19 -316 0 -537 4 -537 9 0 17 63 66 84 66 281 3 923 -3 959 -9 54 -9 85 5 74 33 -6 15 -46 17 -497 16 -269 -1 -494 2 -500 5 -7 4 -2 16 14 32 l25 25 498 -3 c484 -2 498 -2 498 17 0 18 -13 19 -467 15 -257 -2 -472 0 -478 4 -13 8 42 65 63 65 149 3 766 -2 830 -6 l87 -7 0 32 0 31 -430 -4 c-262 -2 -432 0 -436 6 -3 5 6 21 20 35 l26 25 419 -3 c305 -3 423 -1 431 7 9 9 8 14 -1 20 -7 4 -188 7 -401 5 -213 -1 -392 0 -398 4 -7 4 -2 16 15 33 l26 25 395 -2 396 -2 -4 23 -3 23 -361 0 c-391 -1 -384 -2 -330 50 20 19 32 20 361 16 295 -3 342 -1 353 12 11 12 10 17 0 23 -7 4 -151 7 -320 5 -169 -1 -312 0 -318 4 -7 4 -2 15 12 31 l23 24 304 -1 c167 0 307 3 312 8 5 5 4 15 -3 24 -11 12 -54 13 -278 8 -146 -3 -268 -4 -272 -2 -14 7 23 51 55 66 27 13 69 14 260 9 126 -4 235 -3 243 1 17 10 19 37 2 38 -7 0 -109 0 -225 -1 -117 -1 -218 2 -223 5 -7 4 -1 16 14 32 l25 25 213 -3 c207 -4 213 -3 213 16 0 19 -6 20 -187 17 -114 -1 -188 1 -188 7 0 5 14 24 32 41 l32 32 152 -3 c107 -3 156 -1 165 8 26 26 -3 33 -131 33 -71 0 -131 3 -134 8 -2 4 7 18 20 31 23 22 30 23 137 20 107 -4 112 -3 112 16 0 19 -6 20 -81 17 -47 -2 -85 1 -88 6 -3 6 8 24 25 42 29 28 37 31 83 28 46 -3 51 -1 54 20 3 18 -1 22 -22 22 -34 0 -33 14 4 42 33 24 39 45 14 55 -10 4 -26 -6 -45 -28 -28 -33 -44 -33 -44 -1 0 11 -8 17 -25 17 -24 0 -25 -2 -22 -51 3 -43 -1 -56 -23 -83 -39 -46 -49 -31 -41 61 6 67 4 79 -10 85 -27 10 -34 -18 -28 -122 5 -91 3 -102 -15 -124 -12 -13 -27 -21 -35 -18 -12 5 -14 27 -9 132 l6 127 -29 -4 c-24 -2 -29 -7 -28 -28 1 -14 5 -84 9 -155 l7 -131 -33 -32 c-22 -21 -35 -28 -40 -21 -4 7 -5 92 -2 189 5 157 4 177 -10 183 -9 3 -20 1 -24 -6z"/> <path d="M3293 2277 c-2 -4 -4 -170 -4 -369 l0 -361 183 -1 c101 -1 189 0 196 2 8 3 12 25 12 63 0 40 -4 60 -12 61 -7 1 -62 2 -122 2 l-109 1 2 302 2 301 -71 4 c-40 1 -74 0 -77 -5z"/> <path d="M4035 2278 c-22 -6 -47 -14 -55 -19 -8 -5 -26 -14 -39 -19 -38 -17 -135 -123 -150 -166 -8 -21 -16 -90 -18 -152 -4 -101 -2 -120 18 -168 13 -30 26 -54 31 -54 4 0 8 -6 8 -14 0 -20 83 -91 133 -115 152 -70 340 -41 447 70 49 51 69 87 94 168 27 91 17 184 -32 291 -20 42 -99 122 -144 145 -82 42 -201 55 -293 33z m203 -147 c123 -63 166 -203 102 -333 -34 -68 -45 -79 -109 -108 -105 -48 -222 -11 -288 93 -20 33 -24 50 -24 127 0 77 3 94 24 127 51 80 107 112 195 113 43 0 75 -6 100 -19z"/> <path d="M4905 2275 c-66 -17 -103 -37 -157 -84 -40 -36 -53 -55 -95 -146 -19 -39 -13 -234 8 -286 17 -42 61 -102 104 -142 72 -67 201 -98 317 -77 40 7 80 19 89 27 8 7 23 13 31 13 21 0 112 90 134 132 70 131 70 267 -1 405 -18 37 -92 105 -139 129 -83 42 -195 54 -291 29z m206 -142 c218 -117 141 -463 -102 -463 -82 0 -148 38 -195 112 -21 32 -24 50 -24 128 0 78 3 95 24 128 24 38 53 66 96 95 36 23 158 23 201 0z"/> <path d="M6390 2280 c-8 -5 -24 -10 -35 -10 -47 0 -122 -101 -127 -170 l-3 -45 64 -7 c75 -8 91 0 91 47 0 59 66 90 133 61 83 -34 68 -146 -22 -162 -44 -8 -51 -17 -51 -71 l0 -43 40 0 c32 0 46 -7 75 -35 29 -30 35 -43 35 -78 -1 -60 -32 -95 -92 -103 -103 -14 -148 20 -148 112 l0 44 -72 -3 -73 -3 1 -49 c2 -82 41 -160 98 -193 52 -31 156 -45 229 -31 34 6 69 18 78 25 8 8 20 14 25 14 22 0 71 71 89 128 17 59 17 63 0 109 -19 51 -51 93 -70 93 -7 0 -20 9 -31 21 -18 20 -18 21 14 46 34 26 62 80 62 119 0 38 -40 113 -74 139 -61 47 -194 72 -236 45z"/> <path d="M7198 2281 l-57 -6 -123 -165 c-165 -222 -163 -217 -163 -320 1 -51 6 -94 14 -108 20 -36 82 -102 96 -102 7 0 18 -6 24 -14 6 -7 38 -19 70 -25 136 -27 276 48 316 171 19 59 19 86 0 153 -16 55 -69 118 -115 138 -14 6 -50 13 -80 16 -41 5 -55 10 -55 22 0 15 38 63 132 167 24 26 43 55 43 65 0 18 0 18 -102 8z m-35 -360 c60 -26 87 -66 87 -130 0 -44 -4 -54 -35 -84 -93 -90 -235 -38 -235 86 0 61 26 100 83 126 53 24 48 24 100 2z"/> <path d="M7686 2277 c-49 -14 -117 -80 -147 -143 -21 -45 -23 -63 -23 -225 -1 -150 2 -179 17 -202 9 -14 17 -32 17 -40 0 -20 79 -97 114 -112 57 -24 121 -28 178 -11 54 16 128 67 128 90 0 6 5 17 11 23 53 53 69 327 27 452 -48 142 -175 209 -322 168z m134 -127 c10 -5 28 -26 40 -47 26 -44 38 -183 26 -297 -7 -59 -12 -72 -45 -106 -50 -53 -97 -55 -138 -9 -29 32 -62 148 -63 219 0 69 33 194 59 223 28 29 84 37 121 17z"/> <path d="M5559 2271 c-1 -3 -1 -136 0 -296 1 -159 -2 -317 -8 -350 -6 -39 -5 -64 1 -72 7 -8 36 -13 78 -13 42 0 71 5 78 13 6 8 6 50 0 125 -5 63 -7 121 -4 129 5 12 19 14 76 8 38 -4 97 -4 131 0 56 7 65 11 112 59 44 44 54 60 64 110 19 89 -2 168 -62 233 -11 13 -24 23 -29 23 -5 0 -17 6 -25 14 -12 11 -62 15 -213 19 -109 2 -199 2 -199 -2z m369 -159 c19 -21 32 -46 32 -62 0 -31 -23 -82 -46 -101 -20 -17 -191 -26 -206 -11 -16 16 -14 202 3 213 8 5 52 6 99 3 82 -6 86 -7 118 -42z"/> <path d="M1315 2010 c-5 -8 -10 -967 -5 -1052 0 -5 7 -8 15 -8 8 0 15 3 16 8 0 4 1 240 2 525 2 383 -1 521 -10 528 -7 7 -14 6 -18 -1z"/> <path d="M1205 1930 c-4 -6 -7 -215 -8 -465 -2 -445 -2 -454 18 -459 11 -3 23 -2 27 2 5 5 7 215 6 467 -3 419 -4 460 -20 463 -9 2 -19 -2 -23 -8z"/> <path d="M1099 1843 c-1 -5 -2 -176 -2 -381 -2 -273 1 -376 10 -383 7 -7 14 -6 20 3 8 13 15 720 6 751 -4 16 -32 25 -34 10z"/> <path d="M1001 1681 c-7 -12 -11 -98 -11 -224 0 -190 1 -205 20 -222 16 -14 21 -15 25 -4 3 8 4 115 3 238 -2 162 -6 225 -15 228 -6 2 -16 -5 -22 -16z"/> <path d="M3873 1344 c-32 -7 -99 -76 -107 -110 -13 -54 -19 -446 -7 -537 11 -94 24 -120 79 -158 27 -18 47 -22 105 -22 87 0 122 15 158 68 21 31 28 56 34 118 7 89 -4 115 -44 102 -19 -6 -21 -14 -21 -84 0 -97 -19 -124 -95 -142 -46 -10 -55 -9 -93 10 -28 14 -44 30 -49 49 -5 15 -8 154 -8 309 0 282 0 282 23 303 54 51 154 50 197 -2 21 -25 25 -39 25 -98 0 -61 3 -71 22 -81 36 -20 51 12 43 95 -7 76 -34 130 -81 161 -28 18 -134 29 -181 19z"/> <path d="M5261 1324 c-12 -15 -21 -33 -21 -40 0 -8 -16 -49 -36 -91 -19 -43 -39 -87 -43 -98 -16 -38 -52 -120 -62 -137 -5 -10 -9 -25 -9 -33 0 -17 -37 -95 -45 -95 -6 0 -31 58 -52 120 -14 41 -31 84 -68 165 -7 17 -21 48 -31 70 -9 22 -23 52 -31 67 -7 14 -13 35 -13 46 0 27 -24 44 -56 40 l-27 -3 -4 -402 -5 -402 26 -7 c50 -12 49 -14 43 328 -5 289 0 369 19 311 3 -10 12 -31 19 -48 8 -16 28 -68 45 -115 17 -47 35 -94 40 -105 38 -87 48 -113 52 -130 3 -16 11 -20 42 -20 36 0 40 3 53 40 7 22 22 58 32 80 30 65 78 185 102 252 12 35 26 60 31 57 6 -4 9 -125 7 -328 l-4 -321 24 -3 c13 -2 28 1 33 6 8 8 13 801 5 808 -1 1 -12 4 -23 8 -17 5 -27 0 -43 -20z"/> <path d="M5842 1338 c-12 -16 -30 -73 -82 -263 -5 -16 -18 -64 -30 -105 -12 -41 -26 -88 -31 -105 -24 -84 -52 -173 -60 -193 -5 -13 -9 -30 -9 -38 0 -9 -7 -31 -16 -50 -20 -42 -13 -64 20 -64 29 0 43 21 61 94 7 28 20 76 29 106 9 30 23 78 31 105 13 47 27 97 61 210 8 28 20 68 25 90 6 22 15 49 19 60 5 11 12 31 15 45 4 14 13 40 22 58 11 26 12 36 3 48 -15 17 -44 18 -58 2z"/> <path d="M4245 1328 c-2 -7 -5 -190 -7 -406 -3 -366 -2 -393 15 -398 9 -3 27 -2 38 1 20 7 21 12 15 84 -9 115 -10 227 -2 240 4 6 36 11 81 11 l73 0 37 -72 c39 -78 41 -82 74 -143 12 -22 29 -56 38 -75 18 -41 29 -50 64 -50 41 0 40 20 -3 90 -22 36 -46 79 -54 95 -8 17 -23 44 -34 60 -56 88 -61 111 -27 124 58 23 117 128 117 209 0 59 -28 135 -64 173 -51 53 -104 69 -238 69 -86 0 -120 -3 -123 -12z m259 -69 c22 -11 45 -26 51 -33 44 -44 58 -142 30 -210 -9 -20 -34 -50 -57 -66 -40 -30 -45 -31 -132 -28 l-91 3 -3 165 c-1 90 0 170 2 177 9 23 154 17 200 -8z"/> <path d="M6140 935 l0 -405 38 0 c20 -1 107 -2 192 -4 85 -2 163 0 173 6 20 10 23 43 5 55 -7 4 -87 8 -178 8 l-165 0 0 160 0 160 162 -4 c148 -3 163 -1 170 14 3 10 2 25 -4 34 -9 14 -34 16 -169 16 l-159 0 0 145 0 145 161 3 c172 3 193 9 179 52 -6 19 -14 20 -206 20 l-199 0 0 -405z"/> <path d="M6613 1328 c-4 -7 -9 -187 -10 -400 -2 -331 0 -388 13 -399 10 -8 21 -9 36 -2 21 9 21 15 18 124 -2 63 -4 134 -4 159 l-1 45 76 3 c53 2 79 -1 87 -10 6 -7 45 -81 87 -163 42 -83 82 -153 88 -157 7 -4 24 -8 40 -8 22 0 27 4 27 25 0 14 -4 25 -10 25 -5 0 -12 11 -16 25 -3 14 -10 25 -14 25 -4 0 -13 12 -18 28 -6 15 -35 68 -65 117 -42 69 -53 94 -45 108 5 9 15 17 23 17 20 0 79 78 98 130 42 115 -13 252 -119 300 -38 16 -67 20 -165 20 -83 0 -120 -4 -126 -12z m284 -84 c69 -56 91 -139 57 -220 -18 -42 -66 -92 -99 -100 -11 -3 -58 -4 -105 -2 l-84 3 -1 172 c0 106 4 175 10 178 6 2 49 3 97 2 80 -2 89 -4 125 -33z"/> <path d="M7137 1334 c-4 -4 -7 -186 -6 -405 0 -386 0 -398 19 -404 11 -4 29 -3 41 0 20 7 21 12 17 153 l-3 147 90 3 c110 3 157 22 213 88 105 123 67 336 -71 403 -37 18 -62 21 -168 21 -69 0 -129 -3 -132 -6z m273 -79 c61 -29 80 -68 80 -166 0 -80 -2 -87 -31 -122 -46 -55 -81 -70 -174 -71 l-80 -1 -3 184 c-2 141 1 187 10 193 20 14 159 2 198 -17z"/> <path d="M1493 795 c-3 -9 -3 -18 0 -21 3 -3 240 -5 528 -5 501 -1 524 0 524 18 0 17 -24 18 -523 21 -465 2 -523 0 -529 -13z"/> <path d="M1543 703 c-3 -7 -2 -17 2 -23 4 -7 156 -10 466 -10 405 0 460 2 466 15 3 9 3 18 0 21 -3 3 -213 6 -467 7 -353 2 -464 -1 -467 -10z"/> <path d="M1622 598 c-18 -18 -15 -38 6 -38 206 -5 747 1 754 8 6 6 3 15 -7 26 -15 14 -57 16 -379 16 -268 0 -365 -3 -374 -12z"/> <path d="M1771 500 c-8 -4 -11 -15 -8 -24 6 -14 34 -16 229 -16 228 0 271 7 235 34 -14 11 -66 14 -231 14 -116 1 -218 -3 -225 -8z"/> </g> </svg> 